<?xml version="1.0" encoding="UTF-8"?><svg id="Layer_1" xmlns="http://www.w3.org/2000/svg" viewBox="0 0 383.22 383.18"><defs><style>.cls-1{fill:#fee178;}.cls-2{fill:#feb44c;}.cls-3{fill:#f61e78;}.cls-4{fill:#fdfefe;}.cls-5{fill:#1365c1;}.cls-6{fill:#afd06f;}.cls-7{fill:#0ca7ec;}.cls-8{fill:#45c4fe;}.cls-9{fill:#fe776b;}</style></defs><path class="cls-8" d="M0,175.82c.72-4.22,1.51-8.43,2.14-12.66,4.92-33.34,17.88-63.25,38.69-89.7,4.82-6.12,10.44-11.62,15.69-17.41,.67,.74,1.3,1.51,2,2.21,43.57,43.57,87.15,87.14,130.73,130.7,.7,.7,1.49,1.31,2.24,1.96l.09-.09c-.02,.24-.07,.48-.15,.71H0C0,186.3,0,181.06,0,175.82Z"/><path class="cls-3" d="M327.31,326.43c-4.78,4.5-9.31,9.31-14.39,13.45-28.96,23.62-62.02,37.67-99.2,41.94-2.38,.27-4.72,.9-7.07,1.36h-14.97c0-62.15,0-124.3,0-186.45,0-1.49-.09-2.98-.14-4.47,0,0,.25-.11,.25-.1,1.25,.99,2.62,1.86,3.74,2.98,42.83,42.78,85.63,85.59,128.45,128.37,1.05,1.05,2.23,1.96,3.35,2.93Z"/><path class="cls-7" d="M0,191.54c63.81,0,127.63,0,191.44,0,0,0,.29-.03,.29-.03-.1,.22-.09,.44,.04,.64,0,0-.25,.11-.25,.11-.75,.65-1.53,1.27-2.23,1.97-43.5,43.48-86.99,86.96-130.47,130.45-.79,.79-1.47,1.69-2.2,2.53-.3-.21-.65-.38-.91-.64-29.25-29.68-47.11-65.09-53.52-106.27C1.49,215.69,.74,211.1,0,206.51c0-4.99,0-9.98,0-14.97Z"/><path class="cls-5" d="M56.63,327.2c.73-.85,1.41-1.74,2.2-2.53,43.48-43.49,86.97-86.97,130.47-130.45,.7-.7,1.49-1.31,2.23-1.97,.05,1.49,.14,2.98,.14,4.47,0,62.15,0,124.3,0,186.45h-15.72c-.63-.26-1.24-.7-1.89-.76-22.61-2.22-44.23-8-64.74-17.86-19.69-9.46-37.43-21.66-52.69-37.36Z"/><path class="cls-4" d="M56.63,327.2c15.26,15.7,33,27.9,52.69,37.36,20.51,9.85,42.13,15.64,64.74,17.86,.65,.06,1.26,.5,1.89,.76H0C0,324.29,0,265.4,0,206.51c.74,4.59,1.49,9.19,2.21,13.78,6.41,41.18,24.27,76.59,53.52,106.27,.26,.26,.6,.43,.91,.64Z"/><path class="cls-1" d="M191.65,.01c24.82-.28,48.72,4.46,71.67,13.74,22.99,9.29,43.54,22.44,61.23,39.91,.7,.69,1.29,1.49,1.94,2.23-.72,1.12-1.27,2.4-2.19,3.32-43.11,43.16-86.24,86.28-129.4,129.39-.92,.92-2.19,1.5-3.3,2.24,0,0-.09,.09-.09,.09,.06-.99,.17-1.99,.17-2.98,0-62.64,0-125.29-.01-187.93Z"/><path class="cls-2" d="M191.59,190.83c1.11-.74,2.38-1.31,3.3-2.24,43.16-43.1,86.3-86.23,129.4-129.39,.92-.92,1.47-2.21,2.19-3.32,6.37,7.12,13.29,13.83,18.99,21.45,20.49,27.39,32.77,58.18,36.42,92.25,.78,7.28,.9,14.63,1.32,21.95-63.83-.01-127.65-.02-191.48-.03,0,0-.29,.03-.29,.03,.07-.23,.12-.47,.15-.71Z"/><path class="cls-6" d="M191.65,.01c0,62.64,.02,125.29,.01,187.93,0,.99-.11,1.99-.17,2.98-.75-.65-1.54-1.26-2.24-1.95C145.67,145.41,102.1,101.84,58.53,58.27c-.7-.7-1.34-1.47-2-2.21,12.85-13.61,27.86-24.38,44.27-33.23C124.99,9.78,150.78,2.21,178.25,.55c4.46-.27,8.93-.36,13.4-.53Z"/><path class="cls-9" d="M191.74,191.51c63.83,.01,127.65,.02,191.48,.03,.18,30.95-7,60.14-21.1,87.63-8.58,16.72-19.39,31.88-32.56,45.33-.69,.7-1.49,1.29-2.24,1.93-1.12-.97-2.3-1.88-3.35-2.93-42.82-42.79-85.62-85.59-128.45-128.37-1.12-1.12-2.49-1.99-3.74-2.98-.12-.21-.14-.42-.04-.64Z"/></svg>