<?xml version="1.0" encoding="UTF-8"?><svg id="Layer_1" xmlns="http://www.w3.org/2000/svg" viewBox="0 0 409.6 409.6"><defs><style>.cls-1{fill:#fff;}</style></defs><path class="cls-1" d="M0,201.99V0H409.6V409.6H220.42c.75-.23,1.48-.53,2.24-.67,8.4-1.55,15.34-5.58,20.98-12.01,8.93-10.18,9.27-22.34,8.52-35.04h-95.26c0,5.33-.36,10.5,.08,15.6,.91,10.66,5.91,19.44,14.8,25.2,4.97,3.22,11.09,4.67,16.7,6.91H0V208.38c2.52,4.75,5.74,8.7,11.68,8.73,16.48,.07,32.96,.12,49.43-.04,5.1-.05,8.79-2.86,10.69-7.62,3.14-7.9-2.6-16.11-11.48-16.2-14.75-.14-29.51,.22-44.25-.16-7.42-.19-12.89,1.99-16.07,8.89Zm204.2,135.75c15.04,0,30.08,0,45.12,0,10.86,0,14.81-3.96,15.05-14.87,.35-15.59,5.18-29.46,16.02-40.97,2.64-2.81,5.3-5.63,7.71-8.64,36.34-45.48,31.49-110.15-12.24-148.52-33.18-29.11-71.92-35.35-112.5-19.09-70.72,28.33-89.34,119.02-36.56,174.01,11.92,12.42,17.54,26.96,17.75,43.9,.12,9.95,4.44,14.17,14.53,14.18,15.04,.01,30.08,0,45.12,0Zm-11.72-300.74c0,7.72-.04,15.43,.01,23.15,.05,7.82,4.9,13.19,11.87,13.25,6.99,.06,12.03-5.31,12.06-13.05,.05-15.43,.05-30.87,0-46.3-.02-7.82-4.9-13.19-11.87-13.25-7.12-.06-12.03,5.38-12.07,13.45-.04,7.58,0,15.17,0,22.75Zm180.09,180.16c7.72,0,15.44,.04,23.16-.01,7.78-.05,13.15-4.99,13.15-11.97,0-6.97-5.38-11.94-13.15-11.96-15.44-.05-30.87-.05-46.31,0-7.78,.02-13.15,4.99-13.15,11.96,0,6.97,5.38,11.91,13.15,11.96,7.72,.05,15.44,.01,23.16,.01ZM114.88,101.88c-.81-1.52-1.71-4.64-3.71-6.7-11.11-11.46-22.32-22.84-33.91-33.81-2.3-2.17-6.41-3.28-9.71-3.34-4.74-.1-8.16,3.06-9.8,7.55-1.78,4.84-.57,9.22,3.01,12.84,8.7,8.79,17.47,17.52,26.24,26.25,2.83,2.82,5.55,5.78,8.63,8.29,3.86,3.14,8.3,3.41,12.72,1.12,4.28-2.22,6.23-5.99,6.55-12.19Zm237.21-30.56c-.42-6.42-2.47-10.21-7-12.39-4.61-2.23-9.61-1.54-13.6,2.38-11.29,11.1-22.49,22.29-33.58,33.59-5.1,5.2-4.99,12.38-.16,17.13,4.82,4.75,11.9,4.74,17.14-.41,11.11-10.91,22.16-21.87,32.98-33.05,2.17-2.25,3.26-5.55,4.22-7.25Z"/><path d="M188.48,409.6c-5.6-2.25-11.73-3.69-16.7-6.91-8.89-5.76-13.89-14.54-14.8-25.2-.44-5.1-.08-10.27-.08-15.6h95.26c.75,12.7,.41,24.86-8.52,35.04-5.64,6.43-12.58,10.46-20.98,12.01-.76,.14-1.5,.44-2.24,.67h-31.95Z"/><path d="M0,201.99c3.18-6.9,8.65-9.08,16.07-8.89,14.74,.37,29.5,.01,44.25,.16,8.88,.09,14.62,8.3,11.48,16.2-1.89,4.76-5.58,7.57-10.69,7.62-16.48,.16-32.95,.11-49.43,.04-5.94-.03-9.16-3.98-11.68-8.73v-6.39Z"/><path d="M204.2,337.73c-15.04,0-30.08,0-45.12,0-10.09,0-14.4-4.23-14.53-14.18-.21-16.94-5.83-31.48-17.75-43.9-52.78-54.99-34.16-145.68,36.56-174.01,40.58-16.26,79.32-10.02,112.5,19.09,43.73,38.37,48.58,103.04,12.24,148.52-2.41,3.01-5.06,5.83-7.71,8.64-10.84,11.52-15.67,25.38-16.02,40.97-.25,10.91-4.19,14.87-15.05,14.87-15.04,0-30.08,0-45.12,0Zm-4.61-192.32c-21.63,1.58-39.26,13.16-49.95,35.02-1.27,2.6-2,5.49-2.82,8.29-1.86,6.34,1.39,12.71,7.44,14.78,6.14,2.1,12.45-.89,15.05-7,1.76-4.13,3.16-8.56,5.67-12.21,6.89-10.04,16.97-14.53,28.95-15.01,5.43-.22,9.5-2.54,11.59-7.62,3.54-8.59-3.05-16.58-15.92-16.26Z"/><path d="M192.47,37c0-7.58-.03-15.17,0-22.75,.04-8.07,4.95-13.51,12.07-13.45,6.97,.06,11.85,5.43,11.87,13.25,.04,15.43,.05,30.87,0,46.3-.03,7.74-5.08,13.11-12.06,13.05-6.97-.06-11.82-5.43-11.87-13.25-.05-7.72-.01-15.43-.01-23.15Z"/><path d="M372.57,217.16c-7.72,0-15.44,.04-23.16-.01-7.78-.05-13.15-4.99-13.15-11.96,0-6.97,5.38-11.94,13.15-11.96,15.44-.05,30.87-.05,46.31,0,7.78,.02,13.15,4.99,13.15,11.96,0,6.97-5.37,11.91-13.15,11.97-7.72,.05-15.44,.01-23.16,.01Z"/><path d="M114.88,101.88c-.31,6.21-2.27,9.97-6.55,12.19-4.41,2.29-8.86,2.02-12.72-1.12-3.08-2.51-5.8-5.47-8.63-8.29-8.77-8.73-17.54-17.46-26.24-26.25-3.58-3.61-4.79-8-3.01-12.84,1.65-4.49,5.07-7.64,9.8-7.55,3.3,.07,7.41,1.17,9.71,3.34,11.59,10.97,22.8,22.35,33.91,33.81,1.99,2.06,2.9,5.17,3.71,6.7Z"/><path d="M352.08,71.32c-.96,1.7-2.04,5.01-4.22,7.25-10.83,11.18-21.88,22.15-32.98,33.05-5.24,5.14-12.32,5.16-17.14,.41-4.83-4.75-4.94-11.93,.16-17.13,11.08-11.3,22.29-22.49,33.58-33.59,3.99-3.93,9-4.61,13.6-2.38,4.52,2.19,6.58,5.98,7,12.39Z"/><path class="cls-1" d="M199.59,145.41c12.88-.32,19.46,7.67,15.92,16.26-2.09,5.08-6.16,7.4-11.59,7.62-11.99,.48-22.06,4.98-28.95,15.01-2.51,3.65-3.91,8.08-5.67,12.21-2.6,6.1-8.91,9.09-15.05,7-6.05-2.06-9.3-8.44-7.44-14.78,.82-2.8,1.55-5.69,2.82-8.29,10.69-21.86,28.32-33.44,49.95-35.02Z"/></svg>