<?xml version="1.0" encoding="UTF-8"?><svg id="Layer_1" xmlns="http://www.w3.org/2000/svg" viewBox="0 0 384 384"><defs><style>.cls-1{fill:#fff;}</style></defs><path d="M0,243.27C0,239.27,0,235.28,0,231.29c2.52-10.63,5.21-21.22,7.48-31.9,.76-3.59,1.23-7.56,.52-11.1C5.66,176.61,2.71,165.05,0,153.44c0-3.99,0-7.98,0-11.98,.19-.31,.51-.6,.56-.92,1.63-11.39,7.27-20.61,15.68-28.14,6.31-5.65,12.89-11.02,19.52-16.3,5.79-4.62,10.12-10.18,12.99-17.04,3.36-8.04,6.73-16.1,10.69-23.85,6.84-13.39,17.62-22.27,32.48-25.27,7.91-1.6,16.03-2.6,24.09-2.87,12.53-.42,24.05-3.15,34.51-10.43,5.49-3.83,11.54-6.93,17.53-9.96,15.63-7.89,31.48-8,47.08-.06,8.09,4.12,15.87,8.89,23.68,13.53,6.13,3.64,12.66,5.68,19.77,6.17,8.46,.57,16.92,1.22,25.34,2.16,18.46,2.05,32.33,11.05,40.58,27.91,3.56,7.26,6.82,14.68,9.87,22.17,2.91,7.14,7.38,12.87,13.36,17.67,7,5.61,14.09,11.18,20.58,17.36,11.78,11.2,17.12,25.04,14.31,41.29-1.61,9.31-4.53,18.39-6.14,27.7-.96,5.54-1.31,11.44-.5,16.96,1.15,7.85,3.62,15.5,5.52,23.24,5.1,20.8-.49,38.16-16.88,51.96-5.63,4.74-11.29,9.44-17.07,13.99-5.82,4.58-10.1,10.19-12.97,17.05-3.42,8.15-6.89,16.3-10.89,24.17-5.97,11.73-15.16,20.4-28.01,23.66-9.34,2.37-19.13,3.19-28.77,4.14-9.57,.95-19.1,1.28-27.67,6.61-13.08,8.14-25.99,16.73-41.56,19.66h-11.98c-8.08-3.07-16.36-5.73-24.19-9.34-6.07-2.8-11.62-6.74-17.35-10.25-5.97-3.66-12.44-5.51-19.41-5.98-8.57-.58-17.15-1.22-25.68-2.2-18.29-2.1-32.01-11.11-40.19-27.8-3.5-7.14-6.69-14.45-9.69-21.82-3.05-7.47-7.62-13.61-14.07-18.47-4.58-3.45-8.98-7.12-13.43-10.73C10.63,268.46,2.55,257.61,0,243.27Zm31.62-7.13c-.03,4.26,1.31,7.82,4.28,10.62,4.07,3.84,8.16,7.7,12.56,11.15,11.05,8.68,21.76,17.62,27.65,30.87,3.44,7.74,6.78,15.52,10.07,23.32,3.48,8.24,9.78,12.23,18.55,12.79,6.84,.44,13.67,1.12,20.51,1.52,12.92,.77,24.99,4.14,36.04,11.06,6.02,3.77,12.23,7.22,18.35,10.82,8.03,4.73,16.05,4.72,24.08-.02,6.55-3.86,13.15-7.63,19.65-11.56,9.12-5.5,18.93-8.84,29.53-9.78,8.57-.77,17.14-1.46,25.72-2.05,8.77-.6,15.06-4.6,18.53-12.83,2.76-6.54,5.69-13,8.41-19.56,4.64-11.19,11.7-20.49,21.2-28,5.67-4.48,11.19-9.16,16.83-13.69,6.71-5.38,9.25-12.04,6.89-20.52-1.83-6.59-3.33-13.28-5.01-19.92-2.51-9.91-3.47-19.91-1.22-29.99,2-8.99,4.25-17.92,6.39-26.88,1.64-6.83,.55-12.89-5.06-17.62-6.29-5.3-12.54-10.65-18.96-15.79-9.46-7.57-16.51-16.86-21.14-28.05-2.66-6.44-5.57-12.78-8.26-19.22-3.5-8.38-9.88-12.45-18.8-13.02-6.84-.43-13.67-1.1-20.51-1.53-12.78-.8-24.76-4.09-35.7-10.94-5.91-3.7-12.02-7.08-18.01-10.66-8.38-5.01-16.7-5.03-25.08,0-6.41,3.85-12.9,7.56-19.31,11.41-8.9,5.33-18.48,8.66-28.82,9.62-8.69,.81-17.39,1.51-26.09,2.1-8.91,.61-15.3,4.62-18.8,13.02-2.59,6.2-5.47,12.29-7.98,18.52-4.82,11.99-12.45,21.71-22.55,29.72-6.82,5.41-13.32,11.24-19.81,17.07-2.93,2.63-4.29,6.22-3.63,10.17,.95,5.64,1.7,11.38,3.44,16.79,5.82,18.04,6,35.94,.15,54-1.79,5.54-2.77,11.34-4.12,17.02Z"/><path class="cls-1" d="M197.66,384c15.57-2.93,28.48-11.52,41.56-19.66,8.57-5.33,18.1-5.66,27.67-6.61,9.64-.96,19.43-1.77,28.77-4.14,12.85-3.26,22.05-11.93,28.01-23.66,4-7.87,7.47-16.02,10.89-24.17,2.87-6.85,7.15-12.46,12.97-17.05,5.78-4.55,11.45-9.25,17.07-13.99,16.39-13.81,21.99-31.16,16.88-51.96-1.9-7.74-4.37-15.39-5.52-23.24-.81-5.53-.45-11.42,.5-16.96,1.61-9.31,4.53-18.39,6.14-27.7,2.82-16.25-2.53-30.09-14.31-41.29-6.49-6.17-13.58-11.74-20.58-17.36-5.98-4.8-10.46-10.53-13.36-17.67-3.05-7.49-6.31-14.91-9.87-22.17-8.25-16.86-22.12-25.86-40.58-27.91-8.42-.94-16.88-1.58-25.34-2.16-7.12-.48-13.64-2.53-19.77-6.17-7.82-4.64-15.59-9.41-23.68-13.53-15.6-7.94-31.45-7.83-47.08,.06-6,3.03-12.04,6.13-17.53,9.96-10.46,7.28-21.97,10.01-34.51,10.43-8.06,.27-16.18,1.27-24.09,2.87-14.87,3-25.65,11.88-32.48,25.27-3.96,7.75-7.33,15.81-10.69,23.85-2.87,6.86-7.2,12.42-12.99,17.04-6.63,5.29-13.21,10.65-19.52,16.3-8.41,7.53-14.05,16.75-15.68,28.14-.05,.33-.37,.62-.56,.92C0,94.31,0,47.17,0,0H384V384H197.66Z"/><path class="cls-1" d="M0,243.27c2.55,14.34,10.63,25.19,21.66,34.15,4.45,3.61,8.86,7.28,13.43,10.73,6.45,4.86,11.02,10.99,14.07,18.47,3,7.37,6.19,14.67,9.69,21.82,8.18,16.69,21.9,25.7,40.19,27.8,8.53,.98,17.11,1.62,25.68,2.2,6.98,.47,13.44,2.33,19.41,5.98,5.73,3.51,11.28,7.45,17.35,10.25,7.83,3.61,16.11,6.27,24.19,9.34H0V243.27Z"/><path class="cls-1" d="M0,153.44c2.71,11.61,5.66,23.17,8,34.86,.71,3.53,.24,7.5-.52,11.1C5.21,210.07,2.52,220.66,0,231.29c0-25.95,0-51.9,0-77.85Z"/><path class="cls-1" d="M31.62,236.14c1.35-5.68,2.32-11.48,4.12-17.02,5.85-18.06,5.67-35.96-.15-54-1.74-5.41-2.5-11.15-3.44-16.79-.66-3.94,.7-7.54,3.63-10.17,6.48-5.82,12.99-11.65,19.81-17.07,10.1-8.02,17.73-17.73,22.55-29.72,2.51-6.24,5.39-12.32,7.98-18.52,3.5-8.39,9.89-12.41,18.8-13.02,8.71-.59,17.41-1.29,26.09-2.1,10.33-.96,19.91-4.29,28.82-9.62,6.41-3.84,12.9-7.56,19.31-11.41,8.38-5.03,16.7-5.02,25.08,0,5.99,3.58,12.1,6.96,18.01,10.66,10.94,6.85,22.92,10.13,35.7,10.94,6.84,.43,13.67,1.09,20.51,1.53,8.92,.56,15.29,4.63,18.8,13.02,2.69,6.43,5.59,12.77,8.26,19.22,4.62,11.19,11.68,20.49,21.14,28.05,6.42,5.14,12.67,10.49,18.96,15.79,5.61,4.72,6.7,10.79,5.06,17.62-2.15,8.96-4.39,17.89-6.39,26.88-2.25,10.08-1.29,20.07,1.22,29.99,1.68,6.64,3.18,13.32,5.01,19.92,2.35,8.48-.18,15.14-6.89,20.52-5.64,4.52-11.16,9.21-16.83,13.69-9.5,7.51-16.56,16.81-21.2,28-2.72,6.55-5.65,13.02-8.41,19.56-3.47,8.23-9.76,12.22-18.53,12.83-8.58,.59-17.16,1.28-25.72,2.05-10.6,.95-20.41,4.29-29.53,9.78-6.51,3.92-13.11,7.7-19.65,11.56-8.03,4.73-16.05,4.75-24.08,.02-6.12-3.61-12.33-7.06-18.35-10.82-11.05-6.92-23.12-10.3-36.04-11.06-6.84-.41-13.67-1.08-20.51-1.52-8.77-.57-15.07-4.56-18.55-12.79-3.29-7.8-6.63-15.58-10.07-23.32-5.89-13.25-16.6-22.19-27.65-30.87-4.4-3.45-8.49-7.31-12.56-11.15-2.96-2.8-4.31-6.36-4.28-10.62ZM207.29,121.22v-32.33c-47.01-4.13-90.23,16.38-110.65,62.11-17.9,40.08-8.69,89.49,28.34,120.77,34.16,28.85,84.28,33.47,123.85,7.06,39.46-26.34,49.75-67.13,46.09-102.04h-31.39c0,5.54,.18,10.77-.03,15.99-1.15,29.02-14.2,51.05-40.32,63.86-26.41,12.95-52.11,9.84-75.67-7.75-23.21-17.34-32.74-47.51-24.77-76.68,7.27-26.61,31.87-47.88,59.62-50.85,8.12-.87,16.4-.13,24.93-.13Zm-53.54,55.02c12.73,12.75,25.39,25.43,37.71,37.76,28.54-28.53,57.25-57.24,85.57-85.56-7.09-7.07-14.47-14.43-22.34-22.27-20.87,20.87-42,41.99-63.58,63.58-5.16-5.24-10.29-10.45-15.3-15.54-7.48,7.47-14.79,14.77-22.06,22.03Z"/><path d="M207.29,121.22c-8.52,0-16.81-.73-24.93,.13-27.75,2.96-52.35,24.24-59.62,50.85-7.97,29.17,1.56,59.34,24.77,76.68,23.56,17.6,49.26,20.7,75.67,7.75,26.12-12.8,39.17-34.84,40.32-63.86,.21-5.22,.03-10.45,.03-15.99h31.39c3.66,34.91-6.63,75.69-46.09,102.04-39.57,26.41-89.69,21.79-123.85-7.06-37.03-31.28-46.24-80.69-28.34-120.77,20.42-45.72,63.64-66.23,110.65-62.11v32.33Z"/><path d="M153.75,176.24c7.27-7.26,14.58-14.56,22.06-22.03,5.01,5.09,10.14,10.3,15.3,15.54,21.59-21.59,42.72-42.72,63.58-63.58,7.87,7.84,15.25,15.21,22.34,22.27-28.32,28.32-57.03,57.03-85.57,85.56-12.31-12.33-24.98-25.01-37.71-37.76Z"/></svg>