<?xml version="1.0" encoding="UTF-8"?>
<svg id="Layer_2" data-name="Layer 2" xmlns="http://www.w3.org/2000/svg" viewBox="0 0 51.12 133.69">
  <defs>
    <style>
      .cls-1 {
        fill: #fff;
      }

      .cls-2 {
        fill: #663c1c;
      }

      .cls-3 {
        fill: #010101;
        opacity: .3;
      }

      .cls-4 {
        fill: #1e415d;
      }

      .cls-5 {
        fill: #fcc6a8;
      }

      .cls-6 {
        fill: #482111;
      }

      .cls-7 {
        fill: #c48145;
      }

      .cls-8 {
        fill: #262936;
      }

      .cls-9 {
        fill: #1e1c1f;
      }

      .cls-10 {
        fill: #391c10;
      }

      .cls-11 {
        fill: #892d2c;
      }

      .cls-12 {
        fill: #89ba5d;
      }

      .cls-13 {
        fill: #13323f;
      }

      .cls-14 {
        fill: #9a3535;
      }

      .cls-15 {
        fill: #af703c;
      }
    </style>
  </defs>
  <g id="Layer_1-2" data-name="Layer 1">
    <g>
      <g>
        <g>
          <ellipse class="cls-3" cx="25.56" cy="132.65" rx="25.56" ry="1.04"/>
          <g>
            <path class="cls-13" d="M38.39,128.66c.09,.79-.19,1.42-.61,1.49l-1.29,.19c-.42,.06-.89-.46-1.05-1.2l-9.65-29.13c-.66-2.99,.11-5.61,1.05-5.75l2.9-.42c.94-.14,1.86,.84,1.79,.5l6.85,34.33Z"/>
            <path class="cls-13" d="M31.85,97.03c.16,4.06-5.78,2.95-5.21,1.81l-9.44-24.55c-1.4-3.5-.09-4.85,1.34-5.62l5.11-1.88c1.42-.78,3.27-3.33,4.65-.43l3.57,30.67Z"/>
            <g>
              <path class="cls-15" d="M28.38,62.98l.11,16.9c0,.45,.37,.82,.83,.82l20.3-.13c.45,0,.82-.37,.82-.83l-.11-16.9c0-.45-.37-.82-.83-.82l-20.3,.13c-.45,0-.82,.37-.82,.83Zm13.92,2.62l-5.79,.04c-.58,0-1.06-.46-1.06-1.05,0-.58,.46-1.06,1.05-1.06l5.79-.04c.58,0,1.06,.46,1.06,1.05,0,.58-.46,1.06-1.05,1.06Z"/>
              <path class="cls-7" d="M50.35,66.79l-.03-4.78-21.95,.14,.03,4.78,21.95-.14Z"/>
              <rect class="cls-7" x="28.42" y="67.22" width="21.95" height="4.47" transform="translate(-.46 .26) rotate(-.38)"/>
              <rect class="cls-7" x="28.45" y="72.06" width="21.95" height="3.94" transform="translate(-.49 .26) rotate(-.38)"/>
              <rect class="cls-7" x="28.48" y="76.36" width="21.95" height="4.27" rx=".82" ry=".82" transform="translate(-.52 .26) rotate(-.38)"/>
              <path class="cls-2" d="M50.17,79.76c0,.15-.12,.28-.28,.28-.15,0-.28-.12-.28-.28,0-.15,.12-.28,.28-.28,.15,0,.28,.12,.28,.28Zm-.29-1.51c-.15,0-.28,.13-.28,.28,0,.15,.13,.28,.28,.28,.15,0,.28-.13,.28-.28,0-.15-.13-.28-.28-.28Zm0-1.23c-.15,0-.28,.13-.28,.28,0,.15,.13,.28,.28,.28,.15,0,.28-.13,.28-.28,0-.15-.13-.28-.28-.28Zm0-1.23c-.15,0-.28,.13-.28,.28,0,.15,.13,.28,.28,.28s.28-.13,.28-.28-.13-.28-.28-.28Zm0-1.23c-.15,0-.28,.13-.28,.28s.13,.28,.28,.28c.15,0,.28-.13,.28-.28,0-.15-.13-.28-.28-.28Zm0-1.23c-.15,0-.28,.13-.28,.28,0,.15,.13,.28,.28,.28s.28-.13,.28-.28c0-.15-.13-.28-.28-.28Zm0-1.23c-.15,0-.28,.13-.28,.28,0,.15,.13,.28,.28,.28,.15,0,.28-.13,.28-.28,0-.15-.13-.28-.28-.28Zm0-1.23c-.15,0-.28,.13-.28,.28,0,.15,.13,.28,.28,.28,.15,0,.28-.13,.28-.28,0-.15-.13-.28-.28-.28Zm0-1.23c-.15,0-.28,.13-.28,.28,0,.15,.13,.28,.28,.28,.15,0,.28-.13,.28-.28s-.13-.28-.28-.28Zm0-1.23c-.15,0-.28,.13-.28,.28s.13,.28,.28,.28c.15,0,.28-.13,.28-.28,0-.15-.13-.28-.28-.28Zm0-1.23c-.15,0-.28,.13-.28,.28,0,.15,.13,.28,.28,.28s.28-.13,.28-.28c0-.15-.13-.28-.28-.28Zm0-1.23c-.15,0-.28,.13-.28,.28s.13,.28,.28,.28c.15,0,.28-.13,.28-.28,0-.15-.13-.28-.28-.28Zm0-1.23c-.15,0-.28,.13-.28,.28,0,.15,.13,.28,.28,.28s.28-.13,.28-.28c0-.15-.13-.28-.28-.28Zm0-1.23c-.15,0-.28,.13-.28,.28,0,.15,.13,.28,.28,.28,.15,0,.28-.13,.28-.28s-.13-.28-.28-.28Zm0-1.23c-.15,0-.28,.13-.28,.28,0,.15,.13,.28,.28,.28,.15,0,.28-.13,.28-.28,0-.15-.13-.28-.28-.28Z"/>
              <path class="cls-2" d="M29.25,79.9c0,.15-.12,.28-.28,.28s-.28-.12-.28-.28c0-.15,.12-.28,.28-.28,.15,0,.28,.12,.28,.28Zm-.29-1.51c-.15,0-.28,.13-.28,.28,0,.15,.13,.28,.28,.28,.15,0,.28-.13,.28-.28,0-.15-.13-.28-.28-.28Zm0-1.23c-.15,0-.28,.13-.28,.28,0,.15,.13,.28,.28,.28,.15,0,.28-.13,.28-.28s-.13-.28-.28-.28Zm0-1.23c-.15,0-.28,.13-.28,.28s.13,.28,.28,.28c.15,0,.28-.13,.28-.28,0-.15-.13-.28-.28-.28Zm0-1.23c-.15,0-.28,.13-.28,.28,0,.15,.13,.28,.28,.28s.28-.13,.28-.28c0-.15-.13-.28-.28-.28Zm0-1.23c-.15,0-.28,.13-.28,.28,0,.15,.13,.28,.28,.28,.15,0,.28-.13,.28-.28,0-.15-.13-.28-.28-.28Zm0-1.23c-.15,0-.28,.13-.28,.28,0,.15,.13,.28,.28,.28,.15,0,.28-.13,.28-.28,0-.15-.13-.28-.28-.28Zm0-1.23c-.15,0-.28,.13-.28,.28,0,.15,.13,.28,.28,.28,.15,0,.28-.13,.28-.28s-.13-.28-.28-.28Zm0-1.23c-.15,0-.28,.13-.28,.28s.13,.28,.28,.28c.15,0,.28-.13,.28-.28,0-.15-.13-.28-.28-.28Zm0-1.23c-.15,0-.28,.13-.28,.28,0,.15,.13,.28,.28,.28,.15,0,.28-.13,.28-.28,0-.15-.13-.28-.28-.28Zm0-1.23c-.15,0-.28,.13-.28,.28,0,.15,.13,.28,.28,.28,.15,0,.28-.13,.28-.28,0-.15-.13-.28-.28-.28Zm0-1.23c-.15,0-.28,.13-.28,.28,0,.15,.13,.28,.28,.28,.15,0,.28-.13,.28-.28,0-.15-.13-.28-.28-.28Zm0-1.23c-.15,0-.28,.13-.28,.28,0,.15,.13,.28,.28,.28s.28-.13,.28-.28c0-.15-.13-.28-.28-.28Zm0-1.23c-.15,0-.28,.13-.28,.28,0,.15,.13,.28,.28,.28,.15,0,.28-.13,.28-.28,0-.15-.13-.28-.28-.28Zm0-1.23c-.15,0-.28,.13-.28,.28,0,.15,.13,.28,.28,.28,.15,0,.28-.13,.28-.28,0-.15-.13-.28-.28-.28Z"/>
            </g>
            <g>
              <path class="cls-5" d="M13.66,14.89c1.5,5.46,4.17,6.23,6.25,10.25,.7,1.35,.22,4.11,.22,4.11l5.16,3.65c.36,.87-4.97-7.74-1.16-7.48,3.24,.05,7.03-.35,7.67-4.41C34.55,3.7,25.03,4.72,21.85,4.81c-6.06,.19-9.84,4.04-8.18,10.08Z"/>
              <path class="cls-5" d="M33.81,17.92c.19,.47-.03,.86-.48,.87l-3.28,.06c-.45,0-.97-.37-1.16-.84l-1.88-4.76c-.19-.47,.03-.86,.48-.87l3.28-.06c.45,0,.97,.37,1.16,.84l1.88,4.76Z"/>
              <path class="cls-10" d="M32.05,11.92c.02,.27-.19,.51-.47,.53l-2.37,.14c-.27,.02-.51-.19-.53-.47h0c-.02-.27,.19-.51,.47-.53l2.37-.14c.27-.02,.51,.19,.53,.47h0Z"/>
              <path class="cls-8" d="M31.48,14.03c.06,.31-.14,.61-.45,.68-.31,.06-.61-.14-.68-.45-.06-.31,.14-.61,.45-.68,.31-.06,.61,.14,.68,.45Z"/>
            </g>
            <g>
              <path class="cls-14" d="M23.86,60.8c.92-.64,2.92,.32,3.66-.19,0,0-.44-4.64-.38-5.37,.37-4.4,10.52-15.54-3.71-25l-3.3-1.26s-1.43,4.66-1.99,8.28c-.79,5.11,.17,9.12-.68,18.81-.21,2.37-1.08,4.94-1.41,6.85,2.59-.77,5.18-1.51,7.81-2.12Z"/>
              <path class="cls-11" d="M28.17,62.37s.16-6.56,.32-7.25c.4-1.76,3.78-11.67,2.11-16.05-.4,5.33-4.53,16.56-4.52,19.84,0,0-6.31,2.52-9.95,3.62,4.49,.16,9.64,.28,12.05-.15Z"/>
            </g>
            <path class="cls-1" d="M31.86,20.78c-.44-.11-2.86-.61-3.7-1.48,.24,.88,2.03,2.63,3.42,2.73,.06-.2,.12-.41,.17-.64,.04-.21,.08-.41,.12-.62Z"/>
            <path class="cls-4" d="M28.36,65.42l-.6,9.02-6.97,9.45c-1.64-5.25-6.46-12.97-5.67-18.39l13.24-.08Z"/>
            <path class="cls-11" d="M29.63,44.34s-1.59-8.92-3.94-10.22c-.89-.49-2.33-.6-3.25-.19-.75,.33-2.51,1.54-2.51,5.48,0,2.51,3.35,12.93,6.01,19.98,2.55-1.79,4.19-10.42,3.69-15.05Z"/>
            <g>
              <path class="cls-5" d="M26.58,36.76c.38,1.17,7.34,26.23,4.92,26.62-2.42,.39-9.34-17.76-10.43-23.99-1.09-6.23,4.38-6.1,5.52-2.63Z"/>
              <path class="cls-14" d="M31.48,56.18c-1.13-5.25-3.87-19.63-4.03-20.16-.34-1.1-1.14-1.97-2.19-2.38-.97-.37-2.02-.31-2.88,.18-.71,.4-2.31,1.71-1.8,5.21,.32,2.23,5.09,15.32,6.53,19.4,2.21-.73,2.33-1.07,4.37-2.25Z"/>
              <g>
                <path class="cls-5" d="M40.56,79.09c.41,1.55,.18,.81,.41,1.55-.01-.03,1.16-.02,1.16-.02,.06,.29-.26,1.15-1.19,1.35-2.72,.57-4.79-.45-4.79-3.22,0-2.55,.15-4.32,1.26-4.39,1.11-.07,2.46,2.06,3.16,4.73Z"/>
                <path class="cls-5" d="M38.64,75.04s3.93,2.01,2.49,5.24c-.64,1.45-3.59-3.78-2.49-5.24Z"/>
              </g>
            </g>
            <path class="cls-4" d="M6.56,129.71c-.38,.71-.96,1.07-1.34,.89l-1.17-.57c-.38-.19-.47-.88-.19-1.58l8.43-29.51c1.14-2.85,3.25-4.57,4.11-4.16l2.64,1.28c.86,.42,.26,3.19-1.15,5.85l-11.32,27.8Z"/>
            <path class="cls-4" d="M19.04,99.02c-1.62,3.73-6.49,.15-5.48-.63l2.17-26.22c.26-3.76,2.03-4.4,3.65-4.49l9.02-1.92-.21,10.01-9.14,23.24Z"/>
            <path class="cls-9" d="M10.03,129.78c-1.36-.75-.34-2.08-1.79-3.98l-3.17-1.86s-3.09,3.23-3.37,4.71c-.11,.58,.05,1.16,.6,1.38l4.91,2.57s6.84,.85,7.19,0c.33-.81-.68-1.83-4.37-2.81Z"/>
            <path class="cls-9" d="M43.47,126.32c-1.22,.42-3.9-1.08-5.68-1.15l-3.41,.88s-.34,4.59,.58,5.78c.36,.46,.9,.74,1.42,.47,0,0,11.51-2.98,12.62-6.33,.27-.83-1.59-.99-5.53,.35Z"/>
            <polygon class="cls-9" points="28.39 65.77 15.13 65.5 16.18 62.34 28.17 62.37 28.39 65.77"/>
            <path class="cls-5" d="M32.42,59.31c.34,.87,8.62,17.99,6.23,18.52-2.39,.53-9.18-12.85-9.74-17.61-.39-3.39,2.51-3.5,3.51-.92Z"/>
          </g>
        </g>
        <polygon class="cls-12" points="43.23 44.96 43.23 34.78 38.73 34.78 38.73 44.96 35.64 44.96 41 54.24 46.35 44.96 43.23 44.96"/>
      </g>
      <g>
        <path class="cls-10" d="M18.8,25.4c.33-.98-.53-2.44-1.35-2.38s-3.25-1.85-2.45-3.5c-1.13,.04-3.69-2.5-2.24-4.05-1.45-.35-4.32-4.81,.43-7.36-.81-2.54,1.22-6.26,5.31-6.15C21.83-.04,25.47-.95,27.48,1.37c3.11-.91,7.47,5.04,4.32,8.1-1.01,.83-5.22,1.15-4.86-.46-.6,.72-2.51,1.41-3.49,1.08,1.13,1.71,2.14,3.49,1.22,4.35,.09,1.41-.71,2.9-1.39,3.43-.25-.58-.83-2.23-1.38-2.45-.45-1.02-2.93-2.15-2.95-.46,1.02,2.15,2.3,4.56,1.85,5.44-.45,.88,.44,5-2,5Z"/>
        <path class="cls-6" d="M27.48,1.37C25.47-.95,21.83-.04,18.51,1.96c-4.09-.11-6.12,3.6-5.31,6.15-4.76,2.55-1.88,7.01-.43,7.36-1.45,1.55,1.11,4.09,2.24,4.05-.8,1.65,1.64,3.55,2.45,3.5,.82-.05,1.68,1.4,1.35,2.38,.52,0,.88-.19,1.14-.49,.26-.86-.35-2.1-1-2.07-.66,.03-2.54-1.72-1.82-3.15-.91,0-2.86-2.3-1.62-3.63-1.15-.35-3.27-4.36,.67-6.48-.54-2.26,1.26-5.49,4.55-5.28,2.76-1.67,5.73-2.38,7.25-.29,1.97-.56,4.35,2.52,4.09,5.16,2.6-3.13-1.57-8.67-4.58-7.79Z"/>
      </g>
      <polygon class="cls-11" points="31.17 54.38 26.27 56.38 27.68 60.57 33.16 58.42 31.17 54.38"/>
    </g>
  </g>
</svg>