<?xml version="1.0" encoding="utf-8"?>
<!-- Generator: Adobe Illustrator 27.0.0, SVG Export Plug-In . SVG Version: 6.00 Build 0)  -->
<svg version="1.1" id="Layer_1" xmlns="http://www.w3.org/2000/svg" xmlns:xlink="http://www.w3.org/1999/xlink" x="0px" y="0px"
	 viewBox="0 0 384 384" style="enable-background:new 0 0 384 384;" xml:space="preserve">
<g>
	<path d="M193.4,146.3c17.5-20.7,41.4-29.6,65.9-37.6c15.8-5.1,31.6-10.2,46.9-16.5c16.7-6.9,29.9-18.2,37.8-35
		c1.2-2.6,3-4.4,6.1-3.8c3.1,0.6,4.2,2.8,4.2,5.8c0.6,37-2.9,73.3-14.3,108.8c-10.7,33.1-32.2,56.8-62.1,73.5
		c-14.5,8.1-29.8,13.8-46.1,17.1c-0.8,0.2-1.6,0.4-3.4,0.8c2.2,1.1,3.5,1.9,4.9,2.4c2.5,1,4.9,2.6,4.3,5.4c-0.4,2-2.1,4.3-3.9,5.3
		c-19.7,11.1-40.8,17.9-63.4,20c-23.1,2.2-45.2-1.4-66.1-11.7c-2.2-1.1-3.1-0.1-4.4,1.2c-12.8,12.9-25.7,25.8-38.3,38.8
		c-3,3.1-5.8,3.8-10,2.6c-11.5-3.3-23-3.9-34.4,1.1c-1.5,0.7-4.4-0.2-5.9-1.4c-2.3-1.8-1.6-4.7,0-6.8c5.9-7.7,11.4-15.8,18.2-22.7
		C45.8,276.8,65.6,264.5,86,253c2-1.1,2.8-2.2,2.8-4.6c-1.1-39.1,16-68.8,47.7-90.6c15.1-10.4,31.7-17.9,49.4-22.7
		c2.6-0.7,5.2-1.5,7.4,0.6c2.4,2.3,1.6,5,0.8,7.7C193.8,144.4,193.6,145.3,193.4,146.3z M28.5,309.9c7.5,0.9,14.9,1.5,22.2,2.6
		c2.5,0.4,4.1,0,5.9-1.8c12.7-13,25.5-25.9,38.3-38.8c4.5-4.5,5.6-4.6,11.4-1.6c10.4,5.4,21.4,9,32.9,10.7
		c27.6,4.2,53.8-1.3,79.1-12.4c0.7-0.3,1.3-0.9,2.2-1.5c-5.1-2.3-9.8-4.4-14.4-6.6c-2.5-1.2-4-3.1-3.4-6c0.6-2.9,2.5-4.1,5.4-4.2
		c24-0.9,46.3-7.8,67.2-19.7c26.9-15.3,45.7-37.1,55-67.1c6.9-22,10.8-44.5,12.6-67.5c0.2-3.1,0.4-6.2,0.6-9.3
		c0.2-3.1,0.3-6.2,0.4-10.2c-13.7,16.4-31.1,25-49.8,31.6c-7.2,2.5-14.5,4.6-21.7,7.2c-13.7,4.9-27.7,9.3-41,15.1
		c-17.4,7.7-30.8,20.2-38.4,38c-1.2,2.8-2.6,5.3-6.2,4.8c-3.8-0.5-4.6-3.3-4.7-6.6c-0.1-6.5-0.1-13.1-0.1-20
		c-27.2,9.6-51.6,23.1-68.4,47.6c-10.3,15.2-14.7,32.2-14.6,50.6c6.3-3.1,12.3-6,18.3-9c32.5-15.7,65-31.1,97.3-47.2
		c13.8-6.9,27.2-14.7,40.4-22.8c16.2-10,31-21.7,41.3-38.5c3.2,1.8,6.1,3.4,9.2,5.2c-2.3,3.3-4.2,6.6-6.6,9.4
		c-4.1,4.7-8.2,9.4-12.8,13.6c-17,15.5-36.6,27.2-57.1,37.5c-32.3,16.1-64.9,31.5-97.3,47.3c-26.7,13-53,26.8-76.9,44.7
		C45.2,292.6,36,300.6,28.5,309.9z"/>
</g>
</svg>
