<?xml version="1.0" encoding="UTF-8"?><svg id="Layer_1" xmlns="http://www.w3.org/2000/svg" viewBox="0 0 542.12 542.12"><defs><style>.cls-1{fill:#fff;}</style></defs><path class="cls-1" d="M542.12,542.12H0V0H542.12V542.12Zm-172.05-224.67c0-2.78,0-4.69,0-6.59,0-33.65-.38-67.3,.1-100.94,.56-38.66-15.9-69-44.61-93.32-35.32-29.93-77.28-43.39-122.71-46.74-35.34-2.61-69.98,1.8-103.21,14.66-34.1,13.2-63.46,32.82-83.22,64.5C6.7,164.62,.83,181.46,.94,200.3c.28,47.91,.19,95.83,.03,143.74-.04,11.89,2.81,23.01,7.43,33.73,13.03,30.27,35.92,51.33,64.04,67.17,35.88,20.21,74.92,28.04,115.69,28.08,112.76,.11,225.52,.04,338.27,.03,11.65,0,15.22-3.53,15.23-15.06,.02-28.01,0-56.02,0-84.03,0-14.62,.1-29.24-.05-43.86-.09-8.36-3.98-12.17-12.27-12.63-1.58-.09-3.17-.03-4.76-.03-48.98,0-97.96,0-146.94,0h-7.55Z"/><path d="M370.06,317.45h7.55c48.98,0,97.96,0,146.94,0,1.59,0,3.18-.06,4.76,.03,8.29,.46,12.18,4.27,12.27,12.63,.15,14.62,.05,29.24,.05,43.86,0,28.01,.01,56.02,0,84.03,0,11.52-3.58,15.05-15.23,15.06-112.76,0-225.52,.08-338.27-.03-40.78-.04-79.82-7.86-115.69-28.08-28.12-15.84-51.01-36.91-64.04-67.17-4.62-10.73-7.47-21.85-7.43-33.73,.16-47.91,.26-95.83-.03-143.74-.11-18.84,5.76-35.68,15.49-51.27,19.75-31.67,49.11-51.29,83.22-64.5,33.22-12.86,67.86-17.26,103.21-14.66,45.43,3.35,87.39,16.81,122.71,46.74,28.71,24.32,45.17,54.66,44.61,93.32-.49,33.64-.1,67.29-.1,100.94,0,1.91,0,3.81,0,6.59Zm-24.35,133.64c0-9.9-.18-19.22,.05-28.53,.21-8.5,6.48-13.44,13.95-11.4,4.86,1.33,7.77,5.69,7.86,12.36,.12,9.1,.03,18.2,.03,27.43h43.51c0-2.24,0-4.15,0-6.06,.02-7.93-.18-15.86,.14-23.77,.25-6.21,4.7-10.27,10.52-10.35,5.87-.08,10.11,3.77,10.79,10.04,.28,2.61,.22,5.27,.23,7.91,.03,7.36,0,14.72,0,22.26h43.65c0-2.2,0-4.1,0-5.99,0-15.85-.1-31.71,.06-47.56,.08-8.11,5-12.66,12.17-11.81,5.77,.68,9.29,5.02,9.34,12.05,.1,15.85,.03,31.7,.04,47.56,0,1.87,0,3.74,0,5.65h21.65v-111.64c-2.51,0-4.75,0-6.99,0-107.81,0-215.63-.04-323.44,.03-25.52,.02-50.57-3.04-74.97-10.65-32.16-10.03-60.78-25.91-83.57-51.24-2.38-2.64-4.64-5.39-7.65-8.89,0,24.49-.16,47.73,.05,70.96,.19,21.98,9,40.67,23.26,56.88,21.8,24.8,50.02,38.87,81.35,47.38,7.57,2.06,15.34,3.37,23.93,5.23,0-3.24-.03-5.47,0-7.69,.13-7.21-.34-14.52,.71-21.59,.45-3.01,3.64-6.98,6.45-7.91,3.08-1.02,8-.11,10.56,1.92,2.4,1.91,3.64,6.33,3.83,9.74,.51,9.08,.17,18.22,.17,27.61h43.49c0-5.53-.09-10.77,.03-16.01,.12-5.44,0-10.94,.82-16.29,.79-5.14,4.69-7.74,9.8-7.89,5.11-.15,8.87,2.28,10.36,7.26,.74,2.47,.85,5.19,.88,7.81,.1,8.38,.04,16.75,.04,25.05h41.54c0-16.9-.03-33.43,.03-49.97,0-2.44,.16-4.94,.7-7.32,1.25-5.5,5.69-8.55,11.29-8.08,6.1,.52,9.82,5.17,9.86,12.75,.08,13.56,.02,27.12,.02,40.69,0,3.98,0,7.97,0,12.09h43.46ZM186.7,90.99c-21.94,.29-42.38,2.6-62.28,8.39-31.36,9.11-59.33,23.87-80.81,49.27-26.06,30.83-28.15,71.38-5.11,104.44,17.71,25.41,42.65,41.18,71.25,51.29,50.61,17.9,101.53,17.86,152.1-.12,29.47-10.47,55.1-26.89,72.56-53.68,15.02-23.04,18.79-47.81,9.26-74.06-8.48-23.34-24.79-40.27-45.01-53.68-34.27-22.73-72.66-31.26-111.96-31.87Zm161.89,178.19c-9.3,8.95-17.96,18.51-27.89,26.49-9.93,7.98-21.12,14.38-31.75,21.47h59.64v-47.96Z"/><path class="cls-1" d="M345.71,451.09h-43.46c0-4.12,0-8.1,0-12.09,0-13.56,.06-27.13-.02-40.69-.05-7.58-3.76-12.23-9.86-12.75-5.6-.48-10.04,2.58-11.29,8.08-.54,2.37-.69,4.87-.7,7.32-.06,16.53-.03,33.07-.03,49.97h-41.54c0-8.3,.06-16.68-.04-25.05-.03-2.61-.14-5.33-.88-7.81-1.49-4.98-5.25-7.42-10.36-7.26-5.11,.15-9.01,2.75-9.8,7.89-.82,5.35-.69,10.85-.82,16.29-.12,5.24-.03,10.48-.03,16.01h-43.49c0-9.39,.33-18.52-.17-27.61-.19-3.4-1.44-7.83-3.83-9.74-2.56-2.03-7.48-2.94-10.56-1.92-2.81,.93-6,4.9-6.45,7.91-1.06,7.07-.59,14.38-.71,21.59-.04,2.22,0,4.45,0,7.69-8.6-1.85-16.37-3.17-23.93-5.23-31.33-8.51-59.55-22.58-81.35-47.38-14.26-16.22-23.06-34.91-23.26-56.88-.2-23.23-.05-46.47-.05-70.96,3.01,3.51,5.28,6.25,7.65,8.89,22.79,25.33,51.41,41.21,83.57,51.24,24.4,7.61,49.45,10.67,74.97,10.65,107.81-.07,215.63-.03,323.44-.03,2.24,0,4.48,0,6.99,0v111.64h-21.65c0-1.9,0-3.78,0-5.65,0-15.85,.06-31.7-.04-47.56-.04-7.03-3.56-11.37-9.34-12.05-7.17-.84-12.09,3.71-12.17,11.81-.16,15.85-.05,31.7-.06,47.56,0,1.89,0,3.79,0,5.99h-43.65c0-7.54,.02-14.9,0-22.26,0-2.64,.05-5.3-.23-7.91-.68-6.27-4.92-10.12-10.79-10.04-5.82,.08-10.27,4.14-10.52,10.35-.32,7.91-.12,15.85-.14,23.77,0,1.91,0,3.81,0,6.06h-43.51c0-9.24,.09-18.34-.03-27.43-.09-6.67-3-11.03-7.86-12.36-7.48-2.04-13.74,2.9-13.95,11.4-.23,9.31-.05,18.63-.05,28.53Z"/><path class="cls-1" d="M186.7,90.99c39.3,.61,77.69,9.14,111.96,31.87,20.22,13.41,36.52,30.34,45.01,53.68,9.54,26.24,5.76,51.02-9.26,74.06-17.46,26.79-43.1,43.2-72.56,53.68-50.57,17.97-101.49,18.02-152.1,.12-28.59-10.12-53.54-25.88-71.25-51.29-23.05-33.06-20.96-73.61,5.11-104.44,21.48-25.4,49.45-40.16,80.81-49.27,19.9-5.78,40.34-8.1,62.28-8.39Zm-3.17,52.02c-19.04,.14-38.27,5.96-53.85,16.86-32.84,22.96-33.91,62.46-2.36,87.07,32.35,25.24,86.33,24.62,118.19-1.34,28.48-23.21,28.66-59.24,.24-82.46-17.52-14.33-38.13-19.77-62.23-20.13Z"/><path class="cls-1" d="M348.59,269.18v47.96h-59.64c10.63-7.09,21.83-13.49,31.75-21.47,9.93-7.98,18.59-17.54,27.89-26.49Z"/><path d="M183.53,143.01c24.1,.35,44.71,5.8,62.23,20.13,28.41,23.23,28.24,59.26-.24,82.46-31.86,25.96-85.84,26.57-118.19,1.34-31.55-24.61-30.48-64.12,2.36-87.07,15.58-10.89,34.8-16.71,53.85-16.86Zm1.26,21.77c-17.31,.04-33.57,5.56-46.07,15.63-16.7,13.46-16.85,33.88-.34,47.44,23.68,19.46,64.54,21.22,89.61,3.86,22.56-15.62,23.17-37.51,1.16-53.95-13.05-9.75-28.41-12.6-44.36-12.98Z"/><path class="cls-1" d="M184.79,164.78c15.94,.39,31.3,3.24,44.35,12.99,22.01,16.44,21.4,38.33-1.16,53.95-25.07,17.36-65.93,15.6-89.61-3.86-16.51-13.56-16.36-33.98,.34-47.44,12.49-10.07,28.76-15.59,46.07-15.64Z"/></svg>