<?xml version="1.0" encoding="UTF-8"?>
<svg id="Material_1" data-name="Material 1" xmlns="http://www.w3.org/2000/svg" viewBox="0 0 512 512">
  <defs>
    <style>
      .mat-1 {
        fill: #fff;
      }
    </style>
  </defs>
  <path class="mat-1" d="m38,512H0C0,341.33,0,170.67,0,0c90,0,180.01,0,270.01,0-4.53,2.2-5.57,6.05-5.55,10.75.1,23.83.04,47.65.05,71.48,0,10.52,1.73,12.27,12.16,12.28,35.8,0,71.43,0,107.25,0,0,62.92,0,125.66,0,188.56,0,7.77,2.36,10.17,10.08,10.19,24.66.04,49.32.03,73.98,0,8.07,0,10.28-2.26,10.28-10.47.01-90.8-.01-181.61.07-272.41,0-4.59-1.13-8.15-5.32-10.37h38.98v512h-38.98c4.19-2.22,5.35-5.78,5.32-10.37-.14-24.33-.05-48.66-.07-72.98,0-9.08-2.06-11.13-11.2-11.14-20.43-.03-40.64,0-61.09,0,0-22.91,0-45.34,0-68.19,0-9.04-2.22-11.3-11.13-11.3-36.1,0-72.07,0-108.18,0,0-37.11,0-73.96,0-111.05,0-7.95-2.56-11.83-7.69-11.73-4.96.09-7.3,3.76-7.31,11.49,0,37,0,73.96,0,110.96h-64.34v-183.21h64.34c.03,12.73-.06,25.08.08,37.76.05,4.39,2.27,7.29,6.84,7.75,4.2.42,7.27-2.44,7.93-7.2.4-13.97.04-27.99.15-41.98-.01-9.56-2.18-11.69-11.85-11.69-76.65,0-153.31,0-229.96,0-9.73,0-11.85,2.09-11.85,11.62.22,82.8-.34,165.66.28,248.43.74,4.16,3.38,6.67,7.57,6.51,6.26.02,7.71-6.22,7.22-11.48,0-26.94,0-53.86,0-80.8h64.18v183.35H48.07c-.13-23.08.25-46.07-.14-69.12-.57-8.27-13.22-8.94-14.5-.7-.98,24.56.03,49.32-.42,73.95-.03,4.64.86,8.53,4.99,11.15Z"/>
  <path d="m38,512c-4.13-2.62-5.02-6.5-4.99-11.15.45-24.62-.56-49.38.42-73.95,1.29-8.23,13.94-7.58,14.5.71.39,23.04.01,46.03.14,69.12h64.18v-183.35H48.07c0,26.94,0,53.86,0,80.8.54,5.19-1.01,11.57-7.22,11.48-4.19.16-6.82-2.35-7.57-6.51-.62-82.77-.06-165.63-.28-248.43,0-9.53,2.13-11.62,11.85-11.62,76.65,0,153.31,0,229.96,0,9.67,0,11.83,2.13,11.85,11.69-.1,13.99.25,28.01-.15,41.98-.71,10.19-15.32,9.02-14.77-.55-.14-12.68-.05-25.03-.08-37.76h-64.34v183.21h64.34c0-37,0-73.96,0-110.96,0-7.73,2.35-11.4,7.31-11.49,5.13-.1,7.69,3.78,7.69,11.73,0,37.09,0,73.93,0,111.05,36.11,0,72.08,0,108.18,0,8.91,0,11.13,2.26,11.13,11.3,0,22.86,0,45.28,0,68.19,20.46,0,40.67-.02,61.09,0,9.14.01,11.19,2.06,11.2,11.14.02,24.33-.07,48.66.07,72.98.03,4.59-1.14,8.15-5.32,10.37H38Zm352.69-158.61h-183.31v63.83h183.31v-63.83Zm-262.57-119.42v183.28h63.51v-183.28h-63.51Zm-.06,198.82v63.87h183.01v-63.87h-183.01Zm63.76-278.33H48.24v63.97h143.59v-63.97Zm271.2,278.5h-136.29v63.76h136.29v-63.76ZM112.34,297.86v-63.78H48.27v63.78h64.07Z"/>
  <path d="m473.02,0c4.19,2.22,5.32,5.78,5.32,10.37-.08,90.8-.06,181.61-.07,272.41,0,8.21-2.21,10.46-10.28,10.47-24.66.03-49.32.03-73.98,0-7.72-.01-10.08-2.42-10.08-10.19-.01-62.9,0-125.64,0-188.56-35.82,0-71.45,0-107.25,0-10.43,0-12.16-1.75-12.16-12.28,0-23.83.05-47.65-.05-71.48-.02-4.69,1.01-8.55,5.55-10.75h203.01Zm-9.92,15.37h-183.14v63.68h183.14V15.37Zm-.26,262.65V94.95h-63.5v183.08h63.5Z"/>
  <path class="mat-1" d="m390.7,353.39v63.83h-183.31v-63.83h183.31Z"/>
  <path class="mat-1" d="m128.13,233.98h63.51v183.28h-63.51v-183.28Z"/>
  <path class="mat-1" d="m128.06,432.8h183.01v63.87h-183.01v-63.87Z"/>
  <path class="mat-1" d="m191.83,154.47v63.97H48.24v-63.97h143.59Z"/>
  <path class="mat-1" d="m463.02,432.96v63.76h-136.29v-63.76h136.29Z"/>
  <path class="mat-1" d="m112.34,297.86H48.27v-63.78h64.07v63.78Z"/>
  <path class="mat-1" d="m463.1,15.37v63.68h-183.14V15.37h183.14Z"/>
  <path class="mat-1" d="m462.83,278.03h-63.5V94.95h63.5v183.08Z"/>
</svg>