<?xml version="1.0" encoding="utf-8"?>
<!-- Generator: Adobe Illustrator 27.0.0, SVG Export Plug-In . SVG Version: 6.00 Build 0)  -->
<svg version="1.1" id="Layer_1" xmlns="http://www.w3.org/2000/svg" xmlns:xlink="http://www.w3.org/1999/xlink" x="0px" y="0px"
	 viewBox="0 0 409.6 409.6" style="enable-background:new 0 0 409.6 409.6;" xml:space="preserve">
<g>
	<path d="M226.8,409.6c-5.8-2.5-12.1-4.3-17.2-7.8c-10.9-7.6-15.7-18.6-15.7-31.9c0-30.6,0-61.2,0-91.8c0-16.6,0-33.3,0-49.9
		c0-1.4,0-2.9,0-5.4c-8.6,1.9-16.7,3.3-24.6,5.4c-11.9,3.2-22.8,8.8-33,15.6c-7.1,4.8-10.3,4.7-16.6-1.1
		c-13.5-12.4-29.3-19.1-47.6-19.7c-12.4-0.4-24.3,2.1-35.4,7.8c-2.2,1.2-4.4,2.5-6.7,3.6c-7.3,3.5-15-1-14.1-9.1
		c1.3-12.3,2.7-24.7,5.9-36.5c12.3-46.3,38.9-82.6,78.7-109.1c26.6-17.7,56-27.9,88-30.3c2-0.2,4-0.5,6.3-0.8c0-3.8-0.1-7.5,0-11.2
		c0.1-6.4,3.8-10.6,9.4-10.8c5.7-0.1,9.6,4.2,9.8,10.8c0.1,3.6,0,7.2,0,11.1c7,0.8,13.8,1.3,20.6,2.6
		c68,12.6,116.2,50.5,144.3,113.6c8.3,18.6,12.6,38.3,14.1,58.6c0.3,4.3-0.2,8.3-4.2,10.9c-4.1,2.6-8.1,1.6-12-0.7
		c-20.3-11.7-41.7-14.2-63.6-5.7c-7.9,3.1-15.3,8-22.1,13.2c-9.5,7.4-10.6,7.9-20.9,1.2c-16-10.4-33.6-16.4-52.5-18.6
		c-1.3-0.1-2.6-0.2-4.3-0.3c-0.1,1.3-0.2,2.5-0.2,3.6c0,47.5,0,95,0,142.5c0,10.5,5.5,17.9,14.6,20.2c10.5,2.6,21.1-4.2,23.1-14.8
		c0.4-1.8,0.5-3.7,0.8-5.5c0.9-4.4,4.6-7.5,9-7.7c4.5-0.2,8.7,2.8,9.4,7.5c1.5,9.2-1.9,17.3-7,24.6c-6.3,9-15.5,13.4-25.9,15.8
		C233.7,409.6,230.3,409.6,226.8,409.6z M271,220.1c0.2-0.5,0.3-0.7,0.3-0.9c-0.4-33.2-4.3-65.8-16.1-97.1
		c-5.8-15.4-13.1-30-25.1-41.8c-8.8-8.6-18.7-14.6-31.8-11.8c-7.9,1.7-14.3,6.3-19.9,11.9c-11.9,12.1-19.3,26.9-25.2,42.6
		c-9,24-13.4,48.9-15,74.4c-0.5,7.5-0.1,15-0.1,22.5C182.4,198.1,226.7,198.1,271,220.1z M37.1,209.5c28.5-9.7,55.2-7.2,81,7.7
		c1.7-50.9,9.1-99.7,39.4-142.8c-32.1,9.3-58.7,26.3-80.4,50.9C55.9,149.3,42.5,177.2,37.1,209.5z M290.8,217.1
		c25.9-14.9,52.7-17.2,80.7-7.6c-8-60.4-57.9-119-119.7-134.6C281.7,117.4,289.1,166.2,290.8,217.1z"/>
	<path d="M115.8,18.9c0,3.2,0.2,6.4-0.1,9.5c-0.4,4.9-4.2,8.3-9,8.5c-4.6,0.2-9-2.7-9.4-7.4c-0.5-7.1-0.5-14.3,0-21.4
		c0.4-4.6,5-7.6,9.4-7.4c4.5,0.3,8.4,3.6,8.9,8.2C116,12.3,115.8,15.6,115.8,18.9C115.8,18.9,115.8,18.9,115.8,18.9z"/>
	<path d="M15.9,121.2c0-2.9-0.2-5.9,0-8.8c0.4-5.2,3.9-8.7,8.8-9.1c4.9-0.3,9.3,2.7,9.7,7.9c0.6,6.7,0.6,13.5,0,20.2
		c-0.4,5.1-5.1,8.4-9.7,8c-4.9-0.4-8.5-4-8.9-9.1C15.7,127.4,15.9,124.3,15.9,121.2z"/>
	<path d="M389,96.9c0,2.9,0.2,5.8,0,8.8c-0.4,5.1-3.9,8.7-8.8,9.2c-4.6,0.4-9.4-2.9-9.8-7.9c-0.5-6.8-0.5-13.8,0.1-20.6
		c0.4-5,4.8-7.8,9.6-7.6c4.7,0.3,8.4,3.7,8.9,8.6C389.2,90.5,389,93.7,389,96.9C389,96.9,389,96.9,389,96.9z"/>
	<path d="M294,27.6c-0.2,3.5-0.2,7-0.8,10.3c-0.8,4.8-4.9,7.9-9.6,7.6c-4.6-0.2-8.5-3.5-8.7-8.2c-0.3-6.6-0.3-13.3,0-19.9
		c0.3-4.6,4.4-7.9,8.9-8c4.6-0.1,8.6,2.8,9.4,7.5C293.7,20.4,293.7,24,294,27.6z"/>
</g>
</svg>
