<?xml version="1.0" encoding="UTF-8"?><svg id="Layer_1" xmlns="http://www.w3.org/2000/svg" viewBox="0 0 384 384"><defs><style>.cls-1{fill:#fff;}</style></defs><path class="cls-1" d="M0,287.44V0c128,0,256,0,384,0V384H0c0-30.69,0-61.38,0-92.07,2.37,8.35,4.7,16.72,7.11,25.06,1.43,4.98,5.11,7.39,9.4,6.3,4.22-1.08,6.26-5.12,5.07-10.15-.58-2.46-1.29-4.88-2.15-8.09,33.35,19.26,65.92,38.07,99.31,57.35-3.64,.97-6.17,1.57-8.65,2.33-4.41,1.35-6.77,5.17-5.74,9.1,1.11,4.24,5.07,6.53,9.62,5.35,8.44-2.18,16.86-4.42,25.26-6.77,5.26-1.47,7.27-4.91,5.91-10.25-2.14-8.45-4.41-16.87-6.77-25.26-1.25-4.46-5.13-6.78-9.08-5.74-4.28,1.12-6.44,4.98-5.34,9.61,.62,2.6,1.29,5.19,2.13,8.57-33.33-19.24-65.87-38.04-99.03-57.19,3.33-.95,6.19-1.26,8.49-2.56,2.19-1.24,4.72-3.19,5.49-5.39,1.88-5.39-3.06-10.32-8.72-8.96-8.23,1.97-16.36,4.36-24.58,6.4-3.49,.86-6.14,2.56-7.72,5.81Zm305.44-123.65c0-24.33-.11-48.65,.09-72.98,.04-4.99-1.68-8.1-5.98-10.57-42.15-24.2-84.24-48.48-126.28-72.87-4.16-2.41-7.61-2.47-11.79-.04C119.23,31.87,76.92,56.29,34.57,80.64c-3.8,2.18-5.45,4.94-5.45,9.32,.08,49.03,.08,98.06,0,147.08,0,4.36,1.54,7.18,5.35,9.38,42.46,24.41,84.87,48.89,127.23,73.47,3.91,2.27,7.22,2.34,11.13,.07,42.37-24.56,84.79-49.04,127.24-73.46,3.77-2.17,5.44-4.96,5.42-9.35-.12-24.45-.06-48.9-.06-73.36Zm43.05-57.88v114.95c-2.38-2.48-4.11-4.44-6.01-6.23-3.46-3.26-7.61-3.39-10.7-.46-3.2,3.03-3.27,7.47,.14,10.96,6.18,6.34,12.45,12.6,18.79,18.78,3.59,3.5,7.67,3.49,11.27-.02,6.34-6.18,12.6-12.44,18.78-18.78,3.27-3.35,3.29-7.66,.35-10.71-3.06-3.18-7.38-3.12-10.97,.28-1.94,1.84-3.69,3.87-6.02,6.33V105.84c2.57,2.82,4.29,4.98,6.28,6.84,3.39,3.17,7.74,3.1,10.69,.04,2.86-2.96,2.99-7.23-.09-10.42-6.33-6.55-12.77-12.98-19.3-19.32-3.3-3.21-7.42-3.23-10.71-.04-6.54,6.34-12.98,12.77-19.31,19.32-3.12,3.22-3.02,7.45-.18,10.42,2.96,3.08,7.3,3.2,10.69,.06,2-1.86,3.73-4.01,6.3-6.82Zm-33.29,199.16c-.84,3.14-1.52,5.51-2.11,7.9-1.25,5.05,.69,9.08,4.87,10.27,4.39,1.24,8.23-1.25,9.64-6.44,2.23-8.16,4.4-16.34,6.53-24.54,1.34-5.15-.54-8.66-5.56-10.07-8.51-2.38-17.05-4.65-25.61-6.84-4.51-1.15-8.41,.98-9.49,4.91-1.18,4.27,1.04,8.02,5.65,9.44,2.6,.8,5.23,1.48,8.55,2.42-33.21,19.17-65.8,37.98-99.19,57.26,.92-3.54,1.64-6.14,2.26-8.77,1.03-4.4-1.1-8.19-5.19-9.4-3.94-1.16-7.97,1.06-9.22,5.46-2.41,8.5-4.71,17.04-6.87,25.6-1.33,5.27,.79,8.72,6.07,10.17,8.28,2.28,16.58,4.48,24.89,6.64,4.67,1.22,8.56-.83,9.8-5.01,1.2-4.04-1.2-8-5.77-9.4-2.45-.75-4.93-1.37-8.44-2.34,33.43-19.3,65.98-38.1,99.18-57.28Z"/><path d="M0,287.44c1.59-3.25,4.23-4.95,7.72-5.81,8.22-2.03,16.35-4.42,24.58-6.4,5.66-1.36,10.6,3.57,8.72,8.96-.77,2.2-3.3,4.15-5.49,5.39-2.3,1.3-5.16,1.62-8.49,2.56,33.16,19.15,65.71,37.95,99.03,57.19-.84-3.38-1.52-5.97-2.13-8.57-1.1-4.63,1.06-8.48,5.34-9.61,3.95-1.04,7.83,1.28,9.08,5.74,2.35,8.39,4.62,16.81,6.77,25.26,1.35,5.34-.66,8.78-5.91,10.25-8.39,2.35-16.82,4.59-25.26,6.77-4.56,1.18-8.52-1.12-9.62-5.35-1.03-3.94,1.34-7.75,5.74-9.1,2.48-.76,5.02-1.36,8.65-2.33-33.39-19.28-65.95-38.09-99.31-57.35,.86,3.21,1.56,5.63,2.15,8.09,1.19,5.04-.85,9.08-5.07,10.15-4.29,1.1-7.97-1.32-9.4-6.3C4.7,308.65,2.37,300.28,0,291.93c0-1.5,0-2.99,0-4.49Z"/><path d="M305.44,163.79c0,24.45-.06,48.9,.06,73.36,.02,4.39-1.65,7.18-5.42,9.35-42.45,24.42-84.87,48.9-127.24,73.46-3.91,2.27-7.22,2.2-11.13-.07-42.36-24.58-84.78-49.06-127.23-73.47-3.81-2.19-5.36-5.02-5.35-9.38,.08-49.03,.08-98.06,0-147.08,0-4.38,1.65-7.13,5.45-9.32C76.92,56.29,119.23,31.87,161.47,7.34c4.19-2.43,7.63-2.38,11.79,.04,42.04,24.39,84.14,48.67,126.28,72.87,4.3,2.47,6.02,5.58,5.98,10.57-.19,24.33-.09,48.65-.09,72.98ZM44.32,101.28c-.08,1.23-.17,1.94-.17,2.66,0,42.65,.01,85.3-.06,127.95,0,2.22,.85,3.27,2.64,4.3,36.6,21.07,73.16,42.2,109.74,63.31,.91,.53,1.89,.94,3.19,1.58,.08-1.4,.19-2.36,.19-3.32,0-42.28-.01-84.55,.06-126.83,0-2.32-.79-3.57-2.77-4.68-9.34-5.25-18.61-10.62-27.86-16.02-3.07-1.79-4.73-4.5-3.96-8.13,.68-3.2,2.7-5.62,6.03-5.75,2.21-.08,4.7,.63,6.66,1.71,8.83,4.88,17.55,9.96,26.22,15.13,2.14,1.28,3.76,1.47,6.03,.15,36.53-21.2,73.11-42.3,109.67-63.43,.89-.52,1.72-1.14,2.76-1.83-.77-.53-1.16-.84-1.58-1.08-37.11-21.43-74.23-42.84-111.3-64.34-2.15-1.25-3.57-.71-5.41,.35-25.76,14.92-51.56,29.79-77.34,44.68-11.63,6.71-23.25,13.43-35.24,20.35,1.49,.93,2.61,1.68,3.77,2.35,7.33,4.25,14.71,8.42,21.98,12.76,4.14,2.47,5.31,6.89,3.07,10.57-2.14,3.52-6.44,4.59-10.46,2.35-5.88-3.27-11.66-6.71-17.49-10.06-2.66-1.53-5.34-3.02-8.35-4.72Zm130.5,199.94c1.6-.81,2.6-1.25,3.53-1.79,36.48-21.04,72.94-42.11,109.46-63.08,2.2-1.26,2.71-2.72,2.7-5.05-.06-42.16-.04-84.32-.05-126.47,0-1.04-.15-2.07-.25-3.43-1.59,.86-2.79,1.47-3.96,2.14-36.03,20.81-72.05,41.66-108.13,62.39-2.53,1.45-3.36,3-3.35,5.86,.09,41.66,.06,83.32,.06,124.98,0,1.31,0,2.62,0,4.47Z"/><path d="M348.49,105.91c-2.57,2.8-4.3,4.96-6.3,6.82-3.39,3.14-7.74,3.02-10.69-.06-2.84-2.96-2.94-7.2,.18-10.42,6.33-6.54,12.77-12.98,19.31-19.32,3.29-3.19,7.41-3.16,10.71,.04,6.53,6.34,12.98,12.78,19.3,19.32,3.08,3.19,2.95,7.47,.09,10.42-2.95,3.05-7.31,3.13-10.69-.04-1.99-1.87-3.72-4.02-6.28-6.84v115.16c2.33-2.46,4.08-4.49,6.02-6.33,3.59-3.4,7.91-3.45,10.97-.28,2.94,3.05,2.92,7.36-.35,10.71-6.18,6.34-12.45,12.6-18.78,18.78-3.6,3.52-7.68,3.53-11.27,.02-6.34-6.18-12.61-12.44-18.79-18.78-3.4-3.5-3.34-7.93-.14-10.96,3.09-2.93,7.25-2.8,10.7,.46,1.9,1.79,3.63,3.76,6.01,6.23V105.91Z"/><path d="M315.2,305.07c-33.2,19.17-65.76,37.97-99.18,57.28,3.51,.97,5.99,1.59,8.44,2.34,4.57,1.4,6.97,5.35,5.77,9.4-1.24,4.18-5.13,6.23-9.8,5.01-8.31-2.16-16.61-4.36-24.89-6.64-5.28-1.45-7.4-4.9-6.07-10.17,2.16-8.57,4.46-17.1,6.87-25.6,1.25-4.4,5.28-6.62,9.22-5.46,4.09,1.21,6.21,5,5.19,9.4-.61,2.63-1.34,5.23-2.26,8.77,33.39-19.27,65.98-38.09,99.19-57.26-3.32-.93-5.96-1.62-8.55-2.42-4.61-1.42-6.83-5.17-5.65-9.44,1.08-3.93,4.98-6.07,9.49-4.91,8.56,2.19,17.1,4.45,25.61,6.84,5.02,1.41,6.9,4.92,5.56,10.07-2.12,8.19-4.29,16.37-6.53,24.54-1.42,5.18-5.26,7.68-9.64,6.44-4.18-1.18-6.12-5.22-4.87-10.27,.59-2.39,1.27-4.76,2.11-7.9Z"/><path class="cls-1" d="M44.32,101.28c3,1.7,5.68,3.19,8.35,4.72,5.83,3.35,11.62,6.79,17.49,10.06,4.02,2.24,8.32,1.17,10.46-2.35,2.24-3.68,1.07-8.09-3.07-10.57-7.27-4.34-14.65-8.5-21.98-12.76-1.16-.67-2.28-1.42-3.77-2.35,11.99-6.92,23.61-13.64,35.24-20.35,25.79-14.89,51.58-29.76,77.34-44.68,1.83-1.06,3.26-1.6,5.41-.35,37.07,21.51,74.19,42.91,111.3,64.34,.43,.25,.82,.56,1.58,1.08-1.03,.69-1.86,1.31-2.76,1.83-36.56,21.13-73.14,42.23-109.67,63.43-2.26,1.31-3.89,1.12-6.03-.15-8.67-5.17-17.39-10.24-26.22-15.13-1.96-1.08-4.45-1.8-6.66-1.71-3.33,.13-5.36,2.55-6.03,5.75-.77,3.63,.89,6.35,3.96,8.13,9.25,5.4,18.53,10.77,27.86,16.02,1.98,1.11,2.77,2.36,2.77,4.68-.07,42.28-.05,84.55-.06,126.83,0,.96-.11,1.92-.19,3.32-1.3-.64-2.28-1.06-3.19-1.58-36.58-21.11-73.14-42.24-109.74-63.31-1.79-1.03-2.64-2.09-2.64-4.3,.07-42.65,.05-85.3,.06-127.95,0-.72,.09-1.43,.17-2.66Zm59.11,32.78c4.11,0,7.32-3.12,7.4-7.21,.09-4.19-3.28-7.67-7.41-7.67-3.92,0-7.37,3.37-7.48,7.31-.12,4.12,3.3,7.57,7.49,7.57Z"/><path class="cls-1" d="M174.83,301.22c0-1.85,0-3.16,0-4.47,0-41.66,.03-83.32-.06-124.98,0-2.85,.83-4.41,3.35-5.86,36.09-20.72,72.1-41.57,108.13-62.39,1.17-.67,2.37-1.29,3.96-2.14,.1,1.36,.25,2.39,.25,3.43,.01,42.16,0,84.32,.05,126.47,0,2.34-.5,3.79-2.7,5.05-36.52,20.97-72.98,42.04-109.46,63.08-.94,.54-1.93,.98-3.53,1.79Z"/><path d="M103.43,134.06c-4.19,0-7.61-3.45-7.49-7.57,.11-3.94,3.56-7.3,7.48-7.31,4.13,0,7.5,3.48,7.41,7.67-.09,4.09-3.29,7.21-7.4,7.21Z"/></svg>